<?xml version="1.0" encoding="utf-8"?>
<svg xmlns="http://www.w3.org/2000/svg" xmlns:xlink="http://www.w3.org/1999/xlink" width="600" height="400" viewBox="0 0 2400 1600">
<defs>
  <clipPath id="clip1100">
    <rect x="0" y="0" width="2400" height="1600"/>
  </clipPath>
</defs>
<path clip-path="url(#clip1100)" d="
M0 1600 L2400 1600 L2400 0 L0 0  Z
  " fill="#ffffff" fill-rule="evenodd" fill-opacity="1"/>
<defs>
  <clipPath id="clip1101">
    <rect x="480" y="0" width="1681" height="1600"/>
  </clipPath>
</defs>
<path clip-path="url(#clip1100)" d="
M140.517 1425.62 L2352.76 1425.62 L2352.76 47.2441 L140.517 47.2441  Z
  " fill="#ffffff" fill-rule="evenodd" fill-opacity="1"/>
<defs>
  <clipPath id="clip1102">
    <rect x="140" y="47" width="2213" height="1379"/>
  </clipPath>
</defs>
<polyline clip-path="url(#clip1102)" style="stroke:#000000; stroke-width:2; stroke-opacity:0.1; fill:none" points="
  140.517,1425.62 140.517,47.2441 
  "/>
<polyline clip-path="url(#clip1102)" style="stroke:#000000; stroke-width:2; stroke-opacity:0.1; fill:none" points="
  582.965,1425.62 582.965,47.2441 
  "/>
<polyline clip-path="url(#clip1102)" style="stroke:#000000; stroke-width:2; stroke-opacity:0.1; fill:none" points="
  1025.41,1425.62 1025.41,47.2441 
  "/>
<polyline clip-path="url(#clip1102)" style="stroke:#000000; stroke-width:2; stroke-opacity:0.1; fill:none" points="
  1467.86,1425.62 1467.86,47.2441 
  "/>
<polyline clip-path="url(#clip1102)" style="stroke:#000000; stroke-width:2; stroke-opacity:0.1; fill:none" points="
  1910.31,1425.62 1910.31,47.2441 
  "/>
<polyline clip-path="url(#clip1102)" style="stroke:#000000; stroke-width:2; stroke-opacity:0.1; fill:none" points="
  2352.76,1425.62 2352.76,47.2441 
  "/>
<polyline clip-path="url(#clip1102)" style="stroke:#000000; stroke-width:2; stroke-opacity:0.1; fill:none" points="
  140.517,1415.82 2352.76,1415.82 
  "/>
<polyline clip-path="url(#clip1102)" style="stroke:#000000; stroke-width:2; stroke-opacity:0.1; fill:none" points="
  140.517,1007.64 2352.76,1007.64 
  "/>
<polyline clip-path="url(#clip1102)" style="stroke:#000000; stroke-width:2; stroke-opacity:0.1; fill:none" points="
  140.517,599.461 2352.76,599.461 
  "/>
<polyline clip-path="url(#clip1102)" style="stroke:#000000; stroke-width:2; stroke-opacity:0.1; fill:none" points="
  140.517,191.283 2352.76,191.283 
  "/>
<polyline clip-path="url(#clip1100)" style="stroke:#000000; stroke-width:4; stroke-opacity:1; fill:none" points="
  140.517,1425.62 2352.76,1425.62 
  "/>
<polyline clip-path="url(#clip1100)" style="stroke:#000000; stroke-width:4; stroke-opacity:1; fill:none" points="
  140.517,1425.62 140.517,47.2441 
  "/>
<polyline clip-path="url(#clip1100)" style="stroke:#000000; stroke-width:4; stroke-opacity:1; fill:none" points="
  140.517,1425.62 140.517,1409.08 
  "/>
<polyline clip-path="url(#clip1100)" style="stroke:#000000; stroke-width:4; stroke-opacity:1; fill:none" points="
  582.965,1425.62 582.965,1409.08 
  "/>
<polyline clip-path="url(#clip1100)" style="stroke:#000000; stroke-width:4; stroke-opacity:1; fill:none" points="
  1025.41,1425.62 1025.41,1409.08 
  "/>
<polyline clip-path="url(#clip1100)" style="stroke:#000000; stroke-width:4; stroke-opacity:1; fill:none" points="
  1467.86,1425.62 1467.86,1409.08 
  "/>
<polyline clip-path="url(#clip1100)" style="stroke:#000000; stroke-width:4; stroke-opacity:1; fill:none" points="
  1910.31,1425.62 1910.31,1409.08 
  "/>
<polyline clip-path="url(#clip1100)" style="stroke:#000000; stroke-width:4; stroke-opacity:1; fill:none" points="
  2352.76,1425.62 2352.76,1409.08 
  "/>
<polyline clip-path="url(#clip1100)" style="stroke:#000000; stroke-width:4; stroke-opacity:1; fill:none" points="
  140.517,1415.82 167.064,1415.82 
  "/>
<polyline clip-path="url(#clip1100)" style="stroke:#000000; stroke-width:4; stroke-opacity:1; fill:none" points="
  140.517,1007.64 167.064,1007.64 
  "/>
<polyline clip-path="url(#clip1100)" style="stroke:#000000; stroke-width:4; stroke-opacity:1; fill:none" points="
  140.517,599.461 167.064,599.461 
  "/>
<polyline clip-path="url(#clip1100)" style="stroke:#000000; stroke-width:4; stroke-opacity:1; fill:none" points="
  140.517,191.283 167.064,191.283 
  "/>
<g clip-path="url(#clip1100)">
<text style="fill:#000000; fill-opacity:1; font-family:Arial,Helvetica Neue,Helvetica,sans-serif; font-size:48px; text-anchor:middle;" transform="rotate(0, 140.517, 1479.62)" x="140.517" y="1479.62">0</text>
</g>
<g clip-path="url(#clip1100)">
<text style="fill:#000000; fill-opacity:1; font-family:Arial,Helvetica Neue,Helvetica,sans-serif; font-size:48px; text-anchor:middle;" transform="rotate(0, 582.965, 1479.62)" x="582.965" y="1479.62">2</text>
</g>
<g clip-path="url(#clip1100)">
<text style="fill:#000000; fill-opacity:1; font-family:Arial,Helvetica Neue,Helvetica,sans-serif; font-size:48px; text-anchor:middle;" transform="rotate(0, 1025.41, 1479.62)" x="1025.41" y="1479.62">4</text>
</g>
<g clip-path="url(#clip1100)">
<text style="fill:#000000; fill-opacity:1; font-family:Arial,Helvetica Neue,Helvetica,sans-serif; font-size:48px; text-anchor:middle;" transform="rotate(0, 1467.86, 1479.62)" x="1467.86" y="1479.62">6</text>
</g>
<g clip-path="url(#clip1100)">
<text style="fill:#000000; fill-opacity:1; font-family:Arial,Helvetica Neue,Helvetica,sans-serif; font-size:48px; text-anchor:middle;" transform="rotate(0, 1910.31, 1479.62)" x="1910.31" y="1479.62">8</text>
</g>
<g clip-path="url(#clip1100)">
<text style="fill:#000000; fill-opacity:1; font-family:Arial,Helvetica Neue,Helvetica,sans-serif; font-size:48px; text-anchor:middle;" transform="rotate(0, 2352.76, 1479.62)" x="2352.76" y="1479.62">10</text>
</g>
<g clip-path="url(#clip1100)">
<text style="fill:#000000; fill-opacity:1; font-family:Arial,Helvetica Neue,Helvetica,sans-serif; font-size:48px; text-anchor:end;" transform="rotate(0, 116.517, 1433.32)" x="116.517" y="1433.32">0</text>
</g>
<g clip-path="url(#clip1100)">
<text style="fill:#000000; fill-opacity:1; font-family:Arial,Helvetica Neue,Helvetica,sans-serif; font-size:48px; text-anchor:end;" transform="rotate(0, 116.517, 1025.14)" x="116.517" y="1025.14">5</text>
</g>
<g clip-path="url(#clip1100)">
<text style="fill:#000000; fill-opacity:1; font-family:Arial,Helvetica Neue,Helvetica,sans-serif; font-size:48px; text-anchor:end;" transform="rotate(0, 116.517, 616.961)" x="116.517" y="616.961">10</text>
</g>
<g clip-path="url(#clip1100)">
<text style="fill:#000000; fill-opacity:1; font-family:Arial,Helvetica Neue,Helvetica,sans-serif; font-size:48px; text-anchor:end;" transform="rotate(0, 116.517, 208.783)" x="116.517" y="208.783">15</text>
</g>
<g clip-path="url(#clip1100)">
<text style="fill:#000000; fill-opacity:1; font-family:Arial,Helvetica Neue,Helvetica,sans-serif; font-size:66px; text-anchor:middle;" transform="rotate(0, 1246.64, 1559.48)" x="1246.64" y="1559.48">t</text>
</g>
<polyline clip-path="url(#clip1102)" style="stroke:#009af9; stroke-width:4; stroke-opacity:1; fill:none" points="
  140.517,1334.18 142.731,1333.19 144.946,1332.17 147.16,1331.13 149.375,1330.06 151.589,1328.96 153.804,1327.84 156.018,1326.69 158.232,1325.51 160.447,1324.3 
  162.661,1323.07 164.876,1321.8 167.09,1320.51 169.305,1319.19 171.519,1317.83 173.734,1316.45 175.948,1315.03 178.163,1313.58 180.377,1312.1 182.591,1310.58 
  184.806,1309.03 187.02,1307.45 189.235,1305.83 191.449,1304.17 193.664,1302.48 195.878,1300.75 198.093,1298.98 200.307,1297.18 202.522,1295.33 204.736,1293.45 
  206.95,1291.53 209.165,1289.56 211.379,1287.55 213.594,1285.5 215.808,1283.4 218.023,1281.26 220.237,1279.07 222.452,1276.84 224.666,1274.56 226.88,1272.23 
  229.095,1269.86 231.309,1267.43 233.524,1264.95 235.738,1262.42 237.953,1259.84 240.167,1257.2 242.382,1254.51 244.596,1251.77 246.811,1248.96 249.025,1246.1 
  251.239,1243.18 253.454,1240.2 255.668,1237.15 257.883,1234.05 260.097,1230.88 262.312,1227.64 264.526,1224.34 266.741,1220.97 268.955,1217.54 271.17,1214.03 
  273.384,1210.45 275.598,1206.8 277.813,1203.08 280.027,1199.28 282.242,1195.4 284.456,1191.44 286.671,1187.41 288.885,1183.29 291.1,1179.09 293.314,1174.81 
  295.529,1170.44 297.743,1165.99 299.957,1161.44 302.172,1156.81 304.386,1152.08 306.601,1147.26 308.815,1142.35 311.03,1137.33 313.244,1132.22 315.459,1127.01 
  317.673,1121.69 319.888,1116.27 322.102,1110.75 324.316,1105.11 326.531,1099.37 328.745,1093.52 330.96,1087.55 333.174,1081.47 335.389,1075.27 337.603,1068.95 
  339.818,1062.51 342.032,1055.94 344.247,1049.26 346.461,1042.44 348.675,1035.5 350.89,1028.42 353.104,1021.21 355.319,1013.87 357.533,1006.39 359.748,998.767 
  361.962,991.008 364.177,983.109 366.391,975.068 368.606,966.882 370.82,958.548 373.034,950.062 375.249,941.424 377.463,932.629 379.678,923.675 381.892,914.561 
  384.107,905.284 386.321,895.843 388.536,886.235 390.75,876.46 392.965,866.516 395.179,856.401 397.393,846.114 399.608,835.655 401.822,825.023 404.037,814.216 
  406.251,803.236 408.466,792.08 410.68,780.749 412.895,769.243 415.109,757.562 417.323,745.707 419.538,733.677 421.752,721.473 423.967,709.098 426.181,696.549 
  428.396,683.829 430.61,670.939 432.825,657.881 435.039,644.657 437.254,631.267 439.468,617.713 441.682,603.997 443.897,590.139 446.111,576.147 448.326,562.019 
  450.54,547.757 452.755,533.363 454.969,518.841 457.184,504.197 459.398,489.439 461.613,474.576 463.827,459.619 466.041,444.58 468.256,429.474 470.47,414.317 
  472.685,399.126 474.899,383.921 477.114,368.723 479.328,353.555 481.543,338.44 483.757,323.405 485.972,308.478 488.186,293.687 490.4,279.066 492.615,264.645 
  494.829,250.46 497.044,236.546 499.258,222.942 501.473,209.686 503.687,196.822 505.902,184.388 508.116,172.433 510.331,161.003 512.545,150.144 514.759,139.904 
  516.974,130.323 519.188,121.473 521.403,113.438 523.617,106.299 525.832,100.132 528.046,95.0094 530.261,90.9986 532.475,88.1635 534.69,86.5639 536.904,86.2547 
  539.118,87.2878 541.333,89.7103 543.547,93.5644 545.762,98.8902 547.976,105.722 550.191,114.09 552.405,124.02 554.62,135.537 556.834,148.658 559.049,163.394 
  561.263,179.76 563.477,197.751 565.692,217.299 567.906,238.316 570.121,260.713 572.335,284.394 574.55,309.26 576.764,335.209 578.979,362.136 581.193,389.93 
  583.408,418.477 585.622,447.659 587.836,477.357 590.051,507.443 592.265,537.789 594.48,568.262 596.694,598.726 598.909,629.041 601.123,659.062 603.338,688.671 
  605.552,717.82 607.766,746.428 609.981,774.419 612.195,801.724 614.41,828.283 616.624,854.043 618.839,878.961 621.053,902.999 623.268,926.13 625.482,948.332 
  627.697,969.594 629.911,989.911 632.126,1009.28 634.34,1027.73 636.554,1045.26 638.769,1061.91 640.983,1077.7 643.198,1092.69 645.412,1106.93 647.627,1120.46 
  649.841,1133.37 652.056,1145.67 654.27,1157.32 656.484,1168.34 658.699,1178.78 660.913,1188.66 663.128,1198 665.342,1206.83 667.557,1215.19 669.771,1223.09 
  671.986,1230.56 674.2,1237.63 676.415,1244.31 678.629,1250.62 680.843,1256.59 683.058,1262.23 685.272,1267.56 687.487,1272.6 689.701,1277.37 691.916,1281.88 
  694.13,1286.15 696.345,1290.18 698.559,1294.01 700.774,1297.62 702.988,1301.05 705.202,1304.3 707.417,1307.37 709.631,1310.28 711.846,1313.04 714.06,1315.65 
  716.275,1318.13 718.489,1320.48 720.704,1322.71 722.918,1324.82 725.133,1326.82 727.347,1328.73 729.561,1330.53 731.776,1332.24 733.99,1333.86 736.205,1335.39 
  738.419,1336.84 740.634,1338.22 742.848,1339.53 745.063,1340.76 747.277,1341.93 749.492,1343.04 751.706,1344.08 753.92,1345.07 756.135,1346 758.349,1346.88 
  760.564,1347.71 762.778,1348.49 764.993,1349.23 767.207,1349.92 769.422,1350.57 771.636,1351.18 773.851,1351.75 776.065,1352.28 778.279,1352.77 780.494,1353.24 
  782.708,1353.66 784.923,1354.06 787.137,1354.42 789.352,1354.75 791.566,1355.05 793.781,1355.33 795.995,1355.57 798.209,1355.79 800.424,1355.98 802.638,1356.14 
  804.853,1356.28 807.067,1356.39 809.282,1356.48 811.496,1356.55 813.711,1356.59 815.925,1356.61 818.14,1356.6 820.354,1356.58 822.569,1356.53 824.783,1356.46 
  826.997,1356.37 829.212,1356.26 831.426,1356.13 833.641,1355.98 835.855,1355.81 838.07,1355.61 840.284,1355.4 842.499,1355.17 844.713,1354.92 846.927,1354.65 
  849.142,1354.36 851.356,1354.05 853.571,1353.72 855.785,1353.37 858,1353.01 860.214,1352.62 862.429,1352.22 864.643,1351.79 866.858,1351.35 869.072,1350.88 
  871.286,1350.4 873.501,1349.89 875.715,1349.37 877.93,1348.83 880.144,1348.27 882.359,1347.68 884.573,1347.08 886.788,1346.45 889.002,1345.81 891.217,1345.14 
  893.431,1344.46 895.645,1343.75 897.86,1343.02 900.074,1342.27 902.289,1341.49 904.503,1340.7 906.718,1339.88 908.932,1339.04 911.147,1338.18 913.361,1337.29 
  915.576,1336.38 917.79,1335.44 920.004,1334.49 922.219,1333.5 924.433,1332.49 926.648,1331.46 928.862,1330.4 931.077,1329.31 933.291,1328.2 935.506,1327.06 
  937.72,1325.89 939.935,1324.69 942.149,1323.47 944.363,1322.22 946.578,1320.93 948.792,1319.62 951.007,1318.28 953.221,1316.9 955.436,1315.5 957.65,1314.06 
  959.865,1312.59 962.079,1311.09 964.294,1309.55 966.508,1307.98 968.722,1306.37 970.937,1304.73 973.151,1303.05 975.366,1301.34 977.58,1299.59 979.795,1297.79 
  982.009,1295.96 984.224,1294.09 986.438,1292.18 988.653,1290.23 990.867,1288.24 993.081,1286.2 995.296,1284.12 997.51,1282 999.725,1279.83 1001.94,1277.61 
  1004.15,1275.35 1006.37,1273.04 1008.58,1270.68 1010.8,1268.27 1013.01,1265.81 1015.23,1263.3 1017.44,1260.74 1019.65,1258.12 1021.87,1255.45 1024.08,1252.72 
  1026.3,1249.94 1028.51,1247.1 1030.73,1244.2 1032.94,1241.24 1035.16,1238.22 1037.37,1235.14 1039.58,1231.99 1041.8,1228.78 1044.01,1225.51 1046.23,1222.16 
  1048.44,1218.75 1050.66,1215.27 1052.87,1211.72 1055.09,1208.1 1057.3,1204.4 1059.52,1200.63 1061.73,1196.78 1063.94,1192.86 1066.16,1188.85 1068.37,1184.76 
  1070.59,1180.6 1072.8,1176.35 1075.02,1172.01 1077.23,1167.59 1079.45,1163.08 1081.66,1158.47 1083.87,1153.78 1086.09,1149 1088.3,1144.11 1090.52,1139.14 
  1092.73,1134.06 1094.95,1128.89 1097.16,1123.62 1099.38,1118.24 1101.59,1112.76 1103.8,1107.17 1106.02,1101.47 1108.23,1095.66 1110.45,1089.74 1112.66,1083.7 
  1114.88,1077.55 1117.09,1071.28 1119.31,1064.88 1121.52,1058.37 1123.73,1051.72 1125.95,1044.95 1128.16,1038.06 1130.38,1031.03 1132.59,1023.87 1134.81,1016.57 
  1137.02,1009.14 1139.24,1001.57 1141.45,993.855 1143.66,986.001 1145.88,978.003 1148.09,969.859 1150.31,961.567 1152.52,953.125 1154.74,944.531 1156.95,935.784 
  1159.17,926.882 1161.38,917.823 1163.59,908.603 1165.81,899.224 1168.02,889.681 1170.24,879.976 1172.45,870.102 1174.67,860.06 1176.88,849.849 1179.1,839.47 
  1181.31,828.959 1183.52,818.319 1185.74,807.537 1187.95,796.604 1190.17,785.51 1192.38,774.249 1194.6,762.811 1196.81,751.192 1199.03,739.385 1201.24,727.388 
  1203.45,715.196 1205.67,702.808 1207.88,690.223 1210.1,677.44 1212.31,664.461 1214.53,651.286 1216.74,637.921 1218.96,624.367 1221.17,610.631 1223.38,596.716 
  1225.6,582.633 1227.81,568.387 1230.03,553.987 1232.24,539.444 1234.46,524.769 1236.67,509.974 1238.89,495.071 1241.1,480.074 1243.31,464.999 1245.53,449.86 
  1247.74,434.677 1249.96,419.465 1252.17,404.245 1254.39,389.036 1256.6,373.858 1258.82,358.736 1261.03,343.689 1263.24,328.743 1265.46,313.924 1267.67,299.258 
  1269.89,284.77 1272.1,270.488 1274.32,256.443 1276.53,242.664 1278.75,229.182 1280.96,216.028 1283.17,203.236 1285.39,190.843 1287.6,178.877 1289.82,167.379 
  1292.03,156.384 1294.25,145.949 1296.46,136.158 1298.68,127.092 1300.89,118.828 1303.1,111.44 1305.32,105 1307.53,99.5746 1309.75,95.2288 1311.96,92.0246 
  1314.18,90.02 1316.39,89.2701 1318.61,89.8279 1320.82,91.7415 1323.04,95.0575 1325.25,99.8189 1327.46,106.064 1329.68,113.831 1331.89,123.154 1334.11,134.061 
  1336.32,146.581 1338.54,160.741 1340.75,176.581 1342.97,194.044 1345.18,213.051 1347.39,233.518 1349.61,255.359 1351.82,278.482 1354.04,302.795 1356.25,328.199 
  1358.47,354.597 1360.68,381.882 1362.9,409.948 1365.11,438.685 1367.32,467.979 1369.54,497.711 1371.75,527.764 1373.97,558.01 1376.18,588.325 1378.4,618.575 
  1380.61,648.629 1382.83,678.348 1385.04,707.59 1387.25,736.255 1389.47,764.312 1391.68,791.707 1393.9,818.384 1396.11,844.3 1398.33,869.41 1400.54,893.683 
  1402.76,917.087 1404.97,939.602 1407.18,961.21 1409.4,981.902 1411.61,1001.67 1413.83,1020.52 1416.04,1038.46 1418.26,1055.51 1420.47,1071.67 1422.69,1086.99 
  1424.9,1101.49 1427.11,1115.2 1429.33,1128.19 1431.54,1140.48 1433.76,1152.15 1435.97,1163.25 1438.19,1173.86 1440.4,1183.95 1442.62,1193.5 1444.83,1202.54 
  1447.04,1211.09 1449.26,1219.18 1451.47,1226.83 1453.69,1234.06 1455.9,1240.9 1458.12,1247.37 1460.33,1253.48 1462.55,1259.27 1464.76,1264.74 1466.97,1269.91 
  1469.19,1274.81 1471.4,1279.44 1473.62,1283.82 1475.83,1287.97 1478.05,1291.89 1480.26,1295.6 1482.48,1299.12 1484.69,1302.44 1486.9,1305.59 1489.12,1308.57 
  1491.33,1311.4 1493.55,1314.08 1495.76,1316.62 1497.98,1319.02 1500.19,1321.31 1502.41,1323.47 1504.62,1325.52 1506.83,1327.46 1509.05,1329.3 1511.26,1331.05 
  1513.48,1332.71 1515.69,1334.28 1517.91,1335.77 1520.12,1337.18 1522.34,1338.52 1524.55,1339.79 1526.76,1340.99 1528.98,1342.13 1531.19,1343.2 1533.41,1344.22 
  1535.62,1345.18 1537.84,1346.08 1540.05,1346.94 1542.27,1347.74 1544.48,1348.5 1546.69,1349.22 1548.91,1349.88 1551.12,1350.51 1553.34,1351.1 1555.55,1351.65 
  1557.77,1352.16 1559.98,1352.63 1562.2,1353.07 1564.41,1353.48 1566.62,1353.86 1568.84,1354.2 1571.05,1354.51 1573.27,1354.8 1575.48,1355.05 1577.7,1355.28 
  1579.91,1355.48 1582.13,1355.66 1584.34,1355.81 1586.56,1355.93 1588.77,1356.03 1590.98,1356.1 1593.2,1356.15 1595.41,1356.18 1597.63,1356.19 1599.84,1356.17 
  1602.06,1356.13 1604.27,1356.07 1606.49,1355.99 1608.7,1355.88 1610.91,1355.76 1613.13,1355.61 1615.34,1355.45 1617.56,1355.26 1619.77,1355.06 1621.99,1354.83 
  1624.2,1354.59 1626.42,1354.32 1628.63,1354.04 1630.84,1353.73 1633.06,1353.41 1635.27,1353.07 1637.49,1352.7 1639.7,1352.32 1641.92,1351.92 1644.13,1351.5 
  1646.35,1351.06 1648.56,1350.6 1650.77,1350.12 1652.99,1349.62 1655.2,1349.1 1657.42,1348.57 1659.63,1348.01 1661.85,1347.43 1664.06,1346.83 1666.28,1346.21 
  1668.49,1345.57 1670.7,1344.91 1672.92,1344.23 1675.13,1343.52 1677.35,1342.8 1679.56,1342.05 1681.78,1341.28 1683.99,1340.49 1686.21,1339.67 1688.42,1338.84 
  1690.63,1337.98 1692.85,1337.09 1695.06,1336.19 1697.28,1335.26 1699.49,1334.3 1701.71,1333.32 1703.92,1332.31 1706.14,1331.28 1708.35,1330.23 1710.56,1329.14 
  1712.78,1328.03 1714.99,1326.89 1717.21,1325.73 1719.42,1324.54 1721.64,1323.32 1723.85,1322.07 1726.07,1320.79 1728.28,1319.48 1730.49,1318.14 1732.71,1316.77 
  1734.92,1315.37 1737.14,1313.93 1739.35,1312.47 1741.57,1310.97 1743.78,1309.43 1746,1307.87 1748.21,1306.26 1750.42,1304.63 1752.64,1302.95 1754.85,1301.24 
  1757.07,1299.49 1759.28,1297.71 1761.5,1295.88 1763.71,1294.02 1765.93,1292.11 1768.14,1290.17 1770.35,1288.18 1772.57,1286.15 1774.78,1284.07 1777,1281.95 
  1779.21,1279.79 1781.43,1277.58 1783.64,1275.32 1785.86,1273.02 1788.07,1270.66 1790.28,1268.26 1792.5,1265.81 1794.71,1263.3 1796.93,1260.75 1799.14,1258.13 
  1801.36,1255.47 1803.57,1252.75 1805.79,1249.97 1808,1247.14 1810.21,1244.25 1812.43,1241.29 1814.64,1238.28 1816.86,1235.2 1819.07,1232.07 1821.29,1228.86 
  1823.5,1225.6 1825.72,1222.26 1827.93,1218.86 1830.14,1215.38 1832.36,1211.84 1834.57,1208.23 1836.79,1204.54 1839,1200.78 1841.22,1196.94 1843.43,1193.02 
  1845.65,1189.03 1847.86,1184.95 1850.07,1180.79 1852.29,1176.55 1854.5,1172.23 1856.72,1167.81 1858.93,1163.31 1861.15,1158.72 1863.36,1154.04 1865.58,1149.27 
  1867.79,1144.4 1870.01,1139.44 1872.22,1134.38 1874.43,1129.22 1876.65,1123.95 1878.86,1118.59 1881.08,1113.12 1883.29,1107.54 1885.51,1101.85 1887.72,1096.06 
  1889.94,1090.15 1892.15,1084.13 1894.36,1077.99 1896.58,1071.73 1898.79,1065.35 1901.01,1058.86 1903.22,1052.24 1905.44,1045.5 1907.65,1038.63 1909.87,1031.64 
  1912.08,1024.51 1914.29,1017.25 1916.51,1009.85 1918.72,1002.32 1920.94,994.639 1923.15,986.818 1925.37,978.85 1927.58,970.736 1929.8,962.472 1932.01,954.056 
  1934.22,945.486 1936.44,936.761 1938.65,927.879 1940.87,918.839 1943.08,909.638 1945.3,900.277 1947.51,890.752 1949.73,881.063 1951.94,871.208 1954.15,861.187 
  1956.37,850.998 1958.58,840.641 1960.8,830.112 1963.01,819.415 1965.23,808.545 1967.44,797.505 1969.66,786.291 1971.87,774.904 1974.08,763.344 1976.3,751.61 
  1978.51,739.699 1980.73,727.617 1982.94,715.358 1985.16,702.926 1987.37,690.318 1989.59,677.539 1991.8,664.623 1994.01,651.569 1996.23,638.371 1998.44,625.024 
  2000.66,611.522 2002.87,597.863 2005.09,584.046 2007.3,570.073 2009.52,555.944 2011.73,541.663 2013.94,527.237 2016.16,512.673 2018.37,497.979 2020.59,483.165 
  2022.8,468.245 2025.02,453.231 2027.23,438.14 2029.45,422.987 2031.66,407.793 2033.87,392.577 2036.09,377.361 2038.3,362.167 2040.52,347.024 2042.73,331.957 
  2044.95,316.994 2047.16,302.165 2049.38,287.504 2051.59,273.042 2053.8,258.816 2056.02,244.86 2058.23,231.216 2060.45,217.922 2062.66,205.021 2064.88,192.553 
  2067.09,180.567 2069.31,169.108 2071.52,158.224 2073.73,147.964 2075.95,138.383 2078.16,129.53 2080.38,121.463 2082.59,114.237 2084.81,107.91 2087.02,102.543 
  2089.24,98.1954 2091.45,94.9318 2093.66,92.8159 2095.88,91.9173 2098.09,92.312 2100.31,94.0706 2102.52,97.2534 2104.74,101.912 2106.95,108.088 2109.17,115.813 
  2111.38,125.109 2113.59,135.99 2115.81,148.46 2118.02,162.511 2120.24,178.127 2122.45,195.285 2124.67,213.95 2126.88,234.075 2129.1,255.608 2131.31,278.482 
  2133.53,302.635 2135.74,328.003 2137.95,354.458 2140.17,381.848 2142.38,410.031 2144.6,438.86 2146.81,468.202 2149.03,497.926 2151.24,527.907 2153.46,558.019 
  2155.67,588.148 2157.88,618.18 2160.1,648.013 2162.31,677.537 2164.53,706.658 2166.74,735.282 2168.96,763.326 2171.17,790.697 2173.39,817.324 2175.6,843.132 
  2177.81,868.085 2180.03,892.169 2182.24,915.38 2184.46,937.717 2186.67,959.173 2188.89,979.754 2191.1,999.464 2193.32,1018.31 2195.53,1036.3 2197.74,1053.46 
  2199.96,1069.78 2202.17,1085.31 2204.39,1100.04 2206.6,1114.02 2208.82,1127.26 2211.03,1139.79 2213.25,1151.66 2215.46,1162.88 2217.67,1173.51 2219.89,1183.58 
  2222.1,1193.12 2224.32,1202.16 2226.53,1210.72 2228.75,1218.82 2230.96,1226.48 2233.18,1233.72 2235.39,1240.57 2237.6,1247.05 2239.82,1253.18 2242.03,1258.97 
  2244.25,1264.45 2246.46,1269.64 2248.68,1274.54 2250.89,1279.18 2253.11,1283.57 2255.32,1287.73 2257.53,1291.66 2259.75,1295.38 2261.96,1298.91 2264.18,1302.25 
  2266.39,1305.41 2268.61,1308.4 2270.82,1311.23 2273.04,1313.91 2275.25,1316.45 2277.46,1318.86 2279.68,1321.15 2281.89,1323.31 2284.11,1325.37 2286.32,1327.31 
  2288.54,1329.16 2290.75,1330.91 2292.97,1332.57 2295.18,1334.14 2297.39,1335.63 2299.61,1337.04 2301.82,1338.38 2304.04,1339.65 2306.25,1340.85 2308.47,1341.99 
  2310.68,1343.07 2312.9,1344.08 2315.11,1345.05 2317.32,1345.95 2319.54,1346.81 2321.75,1347.61 2323.97,1348.37 2326.18,1349.09 2328.4,1349.76 2330.61,1350.39 
  2332.83,1350.98 2335.04,1351.53 2337.25,1352.04 2339.47,1352.52 2341.68,1352.96 2343.9,1353.37 2346.11,1353.74 2348.33,1354.09 2350.54,1354.4 2352.76,1354.69 
  
  "/>
<polyline clip-path="url(#clip1102)" style="stroke:#e26f46; stroke-width:4; stroke-opacity:1; fill:none" points="
  140.517,1334.18 142.731,1335.48 144.946,1336.75 147.16,1337.99 149.375,1339.22 151.589,1340.42 153.804,1341.59 156.018,1342.75 158.232,1343.88 160.447,1344.99 
  162.661,1346.08 164.876,1347.15 167.09,1348.2 169.305,1349.23 171.519,1350.23 173.734,1351.22 175.948,1352.19 178.163,1353.14 180.377,1354.07 182.591,1354.98 
  184.806,1355.88 187.02,1356.76 189.235,1357.62 191.449,1358.46 193.664,1359.28 195.878,1360.09 198.093,1360.89 200.307,1361.66 202.522,1362.43 204.736,1363.17 
  206.95,1363.9 209.165,1364.62 211.379,1365.32 213.594,1366 215.808,1366.67 218.023,1367.33 220.237,1367.98 222.452,1368.61 224.666,1369.22 226.88,1369.83 
  229.095,1370.42 231.309,1370.99 233.524,1371.56 235.738,1372.11 237.953,1372.65 240.167,1373.18 242.382,1373.7 244.596,1374.2 246.811,1374.69 249.025,1375.17 
  251.239,1375.64 253.454,1376.1 255.668,1376.55 257.883,1376.99 260.097,1377.41 262.312,1377.83 264.526,1378.23 266.741,1378.63 268.955,1379.01 271.17,1379.38 
  273.384,1379.75 275.598,1380.1 277.813,1380.45 280.027,1380.78 282.242,1381.1 284.456,1381.42 286.671,1381.72 288.885,1382.02 291.1,1382.31 293.314,1382.58 
  295.529,1382.85 297.743,1383.11 299.957,1383.36 302.172,1383.6 304.386,1383.83 306.601,1384.05 308.815,1384.27 311.03,1384.47 313.244,1384.66 315.459,1384.85 
  317.673,1385.03 319.888,1385.19 322.102,1385.35 324.316,1385.5 326.531,1385.64 328.745,1385.77 330.96,1385.9 333.174,1386.01 335.389,1386.11 337.603,1386.21 
  339.818,1386.29 342.032,1386.37 344.247,1386.43 346.461,1386.49 348.675,1386.53 350.89,1386.57 353.104,1386.59 355.319,1386.6 357.533,1386.61 359.748,1386.6 
  361.962,1386.58 364.177,1386.55 366.391,1386.51 368.606,1386.45 370.82,1386.38 373.034,1386.3 375.249,1386.21 377.463,1386.11 379.678,1385.99 381.892,1385.86 
  384.107,1385.71 386.321,1385.55 388.536,1385.38 390.75,1385.19 392.965,1384.99 395.179,1384.77 397.393,1384.53 399.608,1384.28 401.822,1384 404.037,1383.71 
  406.251,1383.4 408.466,1383.07 410.68,1382.72 412.895,1382.34 415.109,1381.94 417.323,1381.51 419.538,1381.06 421.752,1380.58 423.967,1380.07 426.181,1379.53 
  428.396,1378.96 430.61,1378.36 432.825,1377.72 435.039,1377.05 437.254,1376.34 439.468,1375.59 441.682,1374.8 443.897,1373.96 446.111,1373.08 448.326,1372.14 
  450.54,1371.15 452.755,1370.11 454.969,1369 457.184,1367.84 459.398,1366.62 461.613,1365.33 463.827,1363.98 466.041,1362.54 468.256,1361.03 470.47,1359.44 
  472.685,1357.76 474.899,1355.98 477.114,1354.11 479.328,1352.13 481.543,1350.03 483.757,1347.82 485.972,1345.48 488.186,1343.01 490.4,1340.39 492.615,1337.62 
  494.829,1334.69 497.044,1331.59 499.258,1328.32 501.473,1324.86 503.687,1321.19 505.902,1317.32 508.116,1313.23 510.331,1308.91 512.545,1304.35 514.759,1299.53 
  516.974,1294.45 519.188,1289.1 521.403,1283.45 523.617,1277.49 525.832,1271.21 528.046,1264.59 530.261,1257.63 532.475,1250.32 534.69,1242.65 536.904,1234.61 
  539.118,1226.21 541.333,1217.44 543.547,1208.31 545.762,1198.81 547.976,1188.97 550.191,1178.77 552.405,1168.23 554.62,1157.37 556.834,1146.19 559.049,1134.71 
  561.263,1122.95 563.477,1110.93 565.692,1098.69 567.906,1086.29 570.121,1073.78 572.335,1061.22 574.55,1048.64 576.764,1036.11 578.979,1023.66 581.193,1011.36 
  583.408,999.252 585.622,987.38 587.836,975.796 590.051,964.547 592.265,953.68 594.48,943.244 596.694,933.283 598.909,923.846 601.123,914.976 603.338,906.71 
  605.552,899.049 607.766,892.007 609.981,885.594 612.195,879.817 614.41,874.68 616.624,870.186 618.839,866.331 621.053,863.112 623.268,860.52 625.482,858.546 
  627.697,857.174 629.911,856.388 632.126,856.168 634.34,856.492 636.554,857.333 638.769,858.663 640.983,860.449 643.198,862.657 645.412,865.248 647.627,868.182 
  649.841,871.414 652.056,874.925 654.27,878.726 656.484,882.794 658.699,887.108 660.913,891.648 663.128,896.394 665.342,901.327 667.557,906.428 669.771,911.681 
  671.986,917.069 674.2,922.576 676.415,928.188 678.629,933.89 680.843,939.669 683.058,945.513 685.272,951.411 687.487,957.351 689.701,963.324 691.916,969.32 
  694.13,975.331 696.345,981.349 698.559,987.366 700.774,993.378 702.988,999.378 705.202,1005.36 707.417,1011.32 709.631,1017.25 711.846,1023.15 714.06,1029.02 
  716.275,1034.84 718.489,1040.62 720.704,1046.35 722.918,1052.04 725.133,1057.67 727.347,1063.25 729.561,1068.77 731.776,1074.24 733.99,1079.65 736.205,1084.99 
  738.419,1090.28 740.634,1095.5 742.848,1100.67 745.063,1105.76 747.277,1110.8 749.492,1115.76 751.706,1120.67 753.92,1125.5 756.135,1130.28 758.349,1134.98 
  760.564,1139.62 762.778,1144.2 764.993,1148.71 767.207,1153.15 769.422,1157.53 771.636,1161.84 773.851,1166.09 776.065,1170.27 778.279,1174.39 780.494,1178.45 
  782.708,1182.44 784.923,1186.37 787.137,1190.23 789.352,1194.04 791.566,1197.78 793.781,1201.47 795.995,1205.09 798.209,1208.66 800.424,1212.17 802.638,1215.62 
  804.853,1219.01 807.067,1222.35 809.282,1225.63 811.496,1228.86 813.711,1232.03 815.925,1235.15 818.14,1238.22 820.354,1241.23 822.569,1244.19 824.783,1247.1 
  826.997,1249.97 829.212,1252.78 831.426,1255.54 833.641,1258.26 835.855,1260.93 838.07,1263.55 840.284,1266.12 842.499,1268.65 844.713,1271.14 846.927,1273.58 
  849.142,1275.98 851.356,1278.34 853.571,1280.65 855.785,1282.93 858,1285.16 860.214,1287.35 862.429,1289.51 864.643,1291.62 866.858,1293.7 869.072,1295.74 
  871.286,1297.75 873.501,1299.71 875.715,1301.64 877.93,1303.54 880.144,1305.4 882.359,1307.23 884.573,1309.02 886.788,1310.79 889.002,1312.52 891.217,1314.21 
  893.431,1315.88 895.645,1317.52 897.86,1319.12 900.074,1320.7 902.289,1322.24 904.503,1323.76 906.718,1325.25 908.932,1326.71 911.147,1328.15 913.361,1329.56 
  915.576,1330.94 917.79,1332.29 920.004,1333.62 922.219,1334.93 924.433,1336.21 926.648,1337.47 928.862,1338.7 931.077,1339.91 933.291,1341.09 935.506,1342.26 
  937.72,1343.4 939.935,1344.52 942.149,1345.61 944.363,1346.69 946.578,1347.75 948.792,1348.78 951.007,1349.8 953.221,1350.79 955.436,1351.77 957.65,1352.73 
  959.865,1353.67 962.079,1354.59 964.294,1355.49 966.508,1356.37 968.722,1357.24 970.937,1358.09 973.151,1358.92 975.366,1359.74 977.58,1360.54 979.795,1361.32 
  982.009,1362.09 984.224,1362.84 986.438,1363.58 988.653,1364.3 990.867,1365.01 993.081,1365.7 995.296,1366.38 997.51,1367.04 999.725,1367.69 1001.94,1368.33 
  1004.15,1368.95 1006.37,1369.56 1008.58,1370.15 1010.8,1370.74 1013.01,1371.31 1015.23,1371.86 1017.44,1372.41 1019.65,1372.94 1021.87,1373.46 1024.08,1373.97 
  1026.3,1374.47 1028.51,1374.95 1030.73,1375.43 1032.94,1375.89 1035.16,1376.34 1037.37,1376.78 1039.58,1377.21 1041.8,1377.63 1044.01,1378.04 1046.23,1378.44 
  1048.44,1378.83 1050.66,1379.21 1052.87,1379.57 1055.09,1379.93 1057.3,1380.28 1059.52,1380.62 1061.73,1380.95 1063.94,1381.26 1066.16,1381.57 1068.37,1381.87 
  1070.59,1382.16 1072.8,1382.44 1075.02,1382.72 1077.23,1382.98 1079.45,1383.23 1081.66,1383.48 1083.87,1383.71 1086.09,1383.94 1088.3,1384.15 1090.52,1384.36 
  1092.73,1384.56 1094.95,1384.75 1097.16,1384.93 1099.38,1385.1 1101.59,1385.26 1103.8,1385.41 1106.02,1385.55 1108.23,1385.69 1110.45,1385.81 1112.66,1385.93 
  1114.88,1386.03 1117.09,1386.13 1119.31,1386.22 1121.52,1386.3 1123.73,1386.37 1125.95,1386.42 1128.16,1386.47 1130.38,1386.51 1132.59,1386.54 1134.81,1386.56 
  1137.02,1386.57 1139.24,1386.57 1141.45,1386.56 1143.66,1386.53 1145.88,1386.5 1148.09,1386.45 1150.31,1386.39 1152.52,1386.32 1154.74,1386.23 1156.95,1386.13 
  1159.17,1386.02 1161.38,1385.9 1163.59,1385.76 1165.81,1385.61 1168.02,1385.44 1170.24,1385.25 1172.45,1385.05 1174.67,1384.84 1176.88,1384.6 1179.1,1384.35 
  1181.31,1384.07 1183.52,1383.76 1185.74,1383.42 1187.95,1383.06 1190.17,1382.67 1192.38,1382.25 1194.6,1381.81 1196.81,1381.34 1199.03,1380.85 1201.24,1380.34 
  1203.45,1379.8 1205.67,1379.24 1207.88,1378.65 1210.1,1378.04 1212.31,1377.4 1214.53,1376.73 1216.74,1376.03 1218.96,1375.29 1221.17,1374.52 1223.38,1373.71 
  1225.6,1372.87 1227.81,1371.98 1230.03,1371.04 1232.24,1370.05 1234.46,1369.01 1236.67,1367.92 1238.89,1366.76 1241.1,1365.53 1243.31,1364.24 1245.53,1362.87 
  1247.74,1361.42 1249.96,1359.89 1252.17,1358.26 1254.39,1356.54 1256.6,1354.71 1258.82,1352.78 1261.03,1350.73 1263.24,1348.56 1265.46,1346.26 1267.67,1343.82 
  1269.89,1341.24 1272.1,1338.51 1274.32,1335.62 1276.53,1332.56 1278.75,1329.33 1280.96,1325.91 1283.17,1322.3 1285.39,1318.49 1287.6,1314.46 1289.82,1310.21 
  1292.03,1305.74 1294.25,1301.02 1296.46,1296.04 1298.68,1290.79 1300.89,1285.25 1303.1,1279.41 1305.32,1273.25 1307.53,1266.76 1309.75,1259.93 1311.96,1252.76 
  1314.18,1245.23 1316.39,1237.35 1318.61,1229.1 1320.82,1220.5 1323.04,1211.53 1325.25,1202.21 1327.46,1192.52 1329.68,1182.49 1331.89,1172.11 1334.11,1161.4 
  1336.32,1150.36 1338.54,1139 1340.75,1127.34 1342.97,1115.41 1345.18,1103.26 1347.39,1090.95 1349.61,1078.53 1351.82,1066.04 1354.04,1053.53 1356.25,1041.06 
  1358.47,1028.67 1360.68,1016.4 1362.9,1004.31 1365.11,992.438 1367.32,980.834 1369.54,969.542 1371.75,958.608 1373.97,948.075 1376.18,937.988 1378.4,928.389 
  1380.61,919.322 1382.83,910.83 1385.04,902.954 1387.25,895.72 1389.47,889.121 1391.68,883.16 1393.9,877.835 1396.11,873.144 1398.33,869.084 1400.54,865.647 
  1402.76,862.826 1404.97,860.609 1407.18,858.985 1409.4,857.939 1411.61,857.455 1413.83,857.514 1416.04,858.094 1418.26,859.175 1420.47,860.731 1422.69,862.734 
  1424.9,865.157 1427.11,867.969 1429.33,871.137 1431.54,874.625 1433.76,878.397 1435.97,882.415 1438.19,886.636 1440.4,891.06 1442.62,895.693 1444.83,900.517 
  1447.04,905.514 1449.26,910.668 1451.47,915.964 1453.69,921.385 1455.9,926.919 1458.12,932.549 1460.33,938.265 1462.55,944.052 1464.76,949.9 1466.97,955.796 
  1469.19,961.732 1471.4,967.696 1473.62,973.68 1475.83,979.675 1478.05,985.674 1480.26,991.67 1482.48,997.655 1484.69,1003.62 1486.9,1009.57 1489.12,1015.49 
  1491.33,1021.39 1493.55,1027.24 1495.76,1033.06 1497.98,1038.84 1500.19,1044.58 1502.41,1050.26 1504.62,1055.9 1506.83,1061.49 1509.05,1067.02 1511.26,1072.5 
  1513.48,1077.91 1515.69,1083.27 1517.91,1088.57 1520.12,1093.8 1522.34,1098.98 1524.55,1104.08 1526.76,1109.13 1528.98,1114.11 1531.19,1119.03 1533.41,1123.88 
  1535.62,1128.67 1537.84,1133.39 1540.05,1138.04 1542.27,1142.63 1544.48,1147.15 1546.69,1151.61 1548.91,1156.01 1551.12,1160.34 1553.34,1164.6 1555.55,1168.8 
  1557.77,1172.94 1559.98,1177.01 1562.2,1181.02 1564.41,1184.97 1566.62,1188.86 1568.84,1192.68 1571.05,1196.44 1573.27,1200.14 1575.48,1203.79 1577.7,1207.37 
  1579.91,1210.89 1582.13,1214.36 1584.34,1217.77 1586.56,1221.12 1588.77,1224.42 1590.98,1227.66 1593.2,1230.85 1595.41,1233.99 1597.63,1237.07 1599.84,1240.1 
  1602.06,1243.08 1604.27,1246.01 1606.49,1248.88 1608.7,1251.71 1610.91,1254.49 1613.13,1257.22 1615.34,1259.9 1617.56,1262.54 1619.77,1265.13 1621.99,1267.68 
  1624.2,1270.18 1626.42,1272.63 1628.63,1275.05 1630.84,1277.42 1633.06,1279.74 1635.27,1282.03 1637.49,1284.28 1639.7,1286.48 1641.92,1288.65 1644.13,1290.78 
  1646.35,1292.87 1648.56,1294.92 1650.77,1296.94 1652.99,1298.92 1655.2,1300.86 1657.42,1302.77 1659.63,1304.64 1661.85,1306.48 1664.06,1308.28 1666.28,1310.06 
  1668.49,1311.8 1670.7,1313.5 1672.92,1315.18 1675.13,1316.83 1677.35,1318.44 1679.56,1320.03 1681.78,1321.59 1683.99,1323.11 1686.21,1324.61 1688.42,1326.08 
  1690.63,1327.53 1692.85,1328.95 1695.06,1330.34 1697.28,1331.7 1699.49,1333.04 1701.71,1334.35 1703.92,1335.64 1706.14,1336.91 1708.35,1338.15 1710.56,1339.37 
  1712.78,1340.56 1714.99,1341.73 1717.21,1342.88 1719.42,1344.01 1721.64,1345.11 1723.85,1346.2 1726.07,1347.26 1728.28,1348.3 1730.49,1349.33 1732.71,1350.33 
  1734.92,1351.31 1737.14,1352.28 1739.35,1353.22 1741.57,1354.15 1743.78,1355.05 1746,1355.95 1748.21,1356.82 1750.42,1357.67 1752.64,1358.51 1754.85,1359.33 
  1757.07,1360.14 1759.28,1360.93 1761.5,1361.7 1763.71,1362.46 1765.93,1363.2 1768.14,1363.93 1770.35,1364.64 1772.57,1365.33 1774.78,1366.02 1777,1366.68 
  1779.21,1367.34 1781.43,1367.98 1783.64,1368.61 1785.86,1369.22 1788.07,1369.82 1790.28,1370.41 1792.5,1370.98 1794.71,1371.54 1796.93,1372.09 1799.14,1372.63 
  1801.36,1373.15 1803.57,1373.67 1805.79,1374.17 1808,1374.66 1810.21,1375.13 1812.43,1375.6 1814.64,1376.06 1816.86,1376.5 1819.07,1376.93 1821.29,1377.35 
  1823.5,1377.77 1825.72,1378.17 1827.93,1378.56 1830.14,1378.94 1832.36,1379.31 1834.57,1379.67 1836.79,1380.02 1839,1380.36 1841.22,1380.69 1843.43,1381.01 
  1845.65,1381.33 1847.86,1381.63 1850.07,1381.92 1852.29,1382.2 1854.5,1382.48 1856.72,1382.74 1858.93,1383 1861.15,1383.24 1863.36,1383.48 1865.58,1383.71 
  1867.79,1383.93 1870.01,1384.14 1872.22,1384.34 1874.43,1384.53 1876.65,1384.71 1878.86,1384.88 1881.08,1385.05 1883.29,1385.2 1885.51,1385.35 1887.72,1385.48 
  1889.94,1385.61 1892.15,1385.73 1894.36,1385.84 1896.58,1385.93 1898.79,1386.02 1901.01,1386.1 1903.22,1386.17 1905.44,1386.23 1907.65,1386.27 1909.87,1386.31 
  1912.08,1386.34 1914.29,1386.36 1916.51,1386.36 1918.72,1386.36 1920.94,1386.34 1923.15,1386.32 1925.37,1386.28 1927.58,1386.23 1929.8,1386.17 1932.01,1386.1 
  1934.22,1386.02 1936.44,1385.92 1938.65,1385.81 1940.87,1385.69 1943.08,1385.56 1945.3,1385.41 1947.51,1385.24 1949.73,1385.06 1951.94,1384.87 1954.15,1384.65 
  1956.37,1384.42 1958.58,1384.18 1960.8,1383.91 1963.01,1383.62 1965.23,1383.32 1967.44,1382.99 1969.66,1382.64 1971.87,1382.27 1974.08,1381.88 1976.3,1381.46 
  1978.51,1381.01 1980.73,1380.54 1982.94,1380.04 1985.16,1379.51 1987.37,1378.95 1989.59,1378.36 1991.8,1377.73 1994.01,1377.06 1996.23,1376.35 1998.44,1375.6 
  2000.66,1374.81 2002.87,1373.97 2005.09,1373.09 2007.3,1372.17 2009.52,1371.19 2011.73,1370.16 2013.94,1369.08 2016.16,1367.94 2018.37,1366.74 2020.59,1365.48 
  2022.8,1364.15 2025.02,1362.74 2027.23,1361.26 2029.45,1359.7 2031.66,1358.05 2033.87,1356.31 2036.09,1354.46 2038.3,1352.52 2040.52,1350.46 2042.73,1348.28 
  2044.95,1345.98 2047.16,1343.55 2049.38,1340.98 2051.59,1338.25 2053.8,1335.38 2056.02,1332.33 2058.23,1329.12 2060.45,1325.72 2062.66,1322.13 2064.88,1318.33 
  2067.09,1314.32 2069.31,1310.09 2071.52,1305.63 2073.73,1300.92 2075.95,1295.95 2078.16,1290.72 2080.38,1285.21 2082.59,1279.4 2084.81,1273.29 2087.02,1266.87 
  2089.24,1260.11 2091.45,1253 2093.66,1245.54 2095.88,1237.72 2098.09,1229.54 2100.31,1220.98 2102.52,1212.06 2104.74,1202.76 2106.95,1193.1 2109.17,1183.08 
  2111.38,1172.72 2113.59,1162.02 2115.81,1151.01 2118.02,1139.71 2120.24,1128.15 2122.45,1116.34 2124.67,1104.33 2126.88,1092.14 2129.1,1079.82 2131.31,1067.4 
  2133.53,1054.92 2135.74,1042.44 2137.95,1030 2140.17,1017.67 2142.38,1005.51 2144.6,993.586 2146.81,981.944 2149.03,970.636 2151.24,959.708 2153.46,949.205 
  2155.67,939.166 2157.88,929.625 2160.1,920.615 2162.31,912.166 2164.53,904.303 2166.74,897.046 2168.96,890.413 2171.17,884.42 2173.39,879.076 2175.6,874.39 
  2177.81,870.36 2180.03,866.969 2182.24,864.199 2184.46,862.028 2186.67,860.439 2188.89,859.409 2191.1,858.919 2193.32,858.947 2195.53,859.471 2197.74,860.469 
  2199.96,861.919 2202.17,863.797 2204.39,866.081 2206.6,868.745 2208.82,871.767 2211.03,875.122 2213.25,878.783 2215.46,882.726 2217.67,886.925 2219.89,891.353 
  2222.1,895.984 2224.32,900.8 2226.53,905.785 2228.75,910.926 2230.96,916.206 2233.18,921.61 2235.39,927.126 2237.6,932.74 2239.82,938.439 2242.03,944.211 
  2244.25,950.044 2246.46,955.929 2248.68,961.853 2250.89,967.808 2253.11,973.784 2255.32,979.774 2257.53,985.769 2259.75,991.76 2261.96,997.742 2264.18,1003.71 
  2266.39,1009.66 2268.61,1015.57 2270.82,1021.46 2273.04,1027.32 2275.25,1033.13 2277.46,1038.91 2279.68,1044.64 2281.89,1050.32 2284.11,1055.95 2286.32,1061.54 
  2288.54,1067.06 2290.75,1072.54 2292.97,1077.95 2295.18,1083.31 2297.39,1088.6 2299.61,1093.83 2301.82,1099.01 2304.04,1104.11 2306.25,1109.16 2308.47,1114.13 
  2310.68,1119.05 2312.9,1123.9 2315.11,1128.68 2317.32,1133.4 2319.54,1138.05 2321.75,1142.64 2323.97,1147.17 2326.18,1151.62 2328.4,1156.01 2330.61,1160.34 
  2332.83,1164.6 2335.04,1168.8 2337.25,1172.94 2339.47,1177.01 2341.68,1181.02 2343.9,1184.96 2346.11,1188.85 2348.33,1192.67 2350.54,1196.43 2352.76,1200.13 
  
  "/>
<path clip-path="url(#clip1100)" d="
M1856.16 312.204 L2280.76 312.204 L2280.76 130.764 L1856.16 130.764  Z
  " fill="#ffffff" fill-rule="evenodd" fill-opacity="1"/>
<polyline clip-path="url(#clip1100)" style="stroke:#000000; stroke-width:4; stroke-opacity:1; fill:none" points="
  1856.16,312.204 2280.76,312.204 2280.76,130.764 1856.16,130.764 1856.16,312.204 
  "/>
<polyline clip-path="url(#clip1100)" style="stroke:#009af9; stroke-width:4; stroke-opacity:1; fill:none" points="
  1880.16,191.244 2024.16,191.244 
  "/>
<g clip-path="url(#clip1100)">
<text style="fill:#000000; fill-opacity:1; font-family:Arial,Helvetica Neue,Helvetica,sans-serif; font-size:48px; text-anchor:start;" transform="rotate(0, 2048.16, 208.744)" x="2048.16" y="208.744">Prey</text>
</g>
<polyline clip-path="url(#clip1100)" style="stroke:#e26f46; stroke-width:4; stroke-opacity:1; fill:none" points="
  1880.16,251.724 2024.16,251.724 
  "/>
<g clip-path="url(#clip1100)">
<text style="fill:#000000; fill-opacity:1; font-family:Arial,Helvetica Neue,Helvetica,sans-serif; font-size:48px; text-anchor:start;" transform="rotate(0, 2048.16, 269.224)" x="2048.16" y="269.224">Predator</text>
</g>
</svg>
